<svg width="231" height="223" viewBox="0 0 231 223" fill="none" xmlns="http://www.w3.org/2000/svg">
<path d="M220.34 0H10.6599C4.77259 0 0 4.77259 0 10.6599V211.918C0 217.806 4.77259 222.578 10.6599 222.578H220.34C226.227 222.578 231 217.806 231 211.918V10.6599C231 4.77259 226.227 0 220.34 0Z" fill="#F9FAFC"/>
<path d="M169.15 32.4844H63.4062V34.9043H169.15V32.4844Z" fill="#5DBD6D"/>
<path d="M151.057 37.5449H81.48V39.9649H151.057V37.5449Z" fill="#5DBD6D"/>
<path d="M147.942 91.1941C145.693 92.4713 143.192 93.2001 140.629 93.3248C138.066 93.4495 135.509 92.9668 133.155 91.9136C130.8 90.8604 128.71 89.2646 127.043 87.2482C125.377 85.2318 124.179 82.8483 123.541 80.2799C122.902 77.7115 122.841 75.0263 123.361 72.4296C123.881 69.8329 124.969 67.3935 126.541 65.298C128.113 63.2024 130.128 61.5063 132.432 60.3392C134.736 59.1722 137.268 58.5651 139.833 58.5645V75.9542L147.942 91.1941Z" fill="#263238"/>
<path d="M149.809 61.9232L139.834 75.923V58.5332C143.425 58.5253 146.924 59.714 149.809 61.9232Z" fill="#5DBD6D"/>
<path d="M156.66 75.9246C156.666 80.2926 155.073 84.5011 152.199 87.7045L139.834 75.9246L149.809 61.9248C151.935 63.5382 153.663 65.6465 154.853 68.0788C156.043 70.5111 156.662 73.199 156.66 75.9246Z" fill="#A6A6A6"/>
<path d="M158.246 95.773C157.022 97.1426 155.591 98.2976 154.008 99.1929L145.91 83.9531L158.246 95.773Z" fill="#455A64"/>
<path d="M94.4264 59.1932L89.8111 75.923V93.3128C85.3487 93.3128 81.069 91.4806 77.9135 88.2194C74.7581 84.9582 72.9854 80.5351 72.9854 75.923C72.9854 71.3109 74.7581 66.8878 77.9135 63.6266C81.069 60.3653 85.3487 58.5332 89.8111 58.5332C91.3714 58.5359 92.9241 58.7579 94.4264 59.1932Z" fill="#A6A6A6"/>
<path d="M99.7672 89.9237C96.8868 92.1294 93.3959 93.318 89.811 93.3136V75.9238L99.7672 89.9237Z" fill="#263238"/>
<path d="M106.598 75.924C106.601 78.6508 105.981 81.3398 104.789 83.7724C103.597 86.205 101.867 88.3126 99.7384 89.9238L89.7822 75.924L102.864 64.9941C105.289 68.0843 106.608 71.945 106.598 75.924Z" fill="#455A64"/>
<path d="M106.598 59.3634L93.5459 70.2933L98.1708 53.5635C101.49 54.5561 104.432 56.5812 106.598 59.3634Z" fill="#5DBD6D"/>
<path d="M39.7785 58.5332V75.923L28.4484 88.7728C25.9409 86.4099 24.1834 83.3185 23.4065 79.9046C22.6295 76.4908 22.8695 72.9138 24.0948 69.6434C25.3202 66.373 27.4736 63.5619 30.2726 61.5792C33.0715 59.5964 36.3851 58.5346 39.7785 58.5332Z" fill="#455A64"/>
<path d="M51.8249 63.7832L39.7788 75.923V58.5332C42.0245 58.5306 44.2478 58.9939 46.317 59.8957C48.3862 60.7975 50.2591 62.1194 51.8249 63.7832Z" fill="#5DBD6D"/>
<path d="M56.6039 75.924C56.6065 78.505 56.051 81.0539 54.978 83.3844C53.9049 85.7149 52.3414 87.7681 50.4019 89.3939L39.7588 75.924L51.8049 63.7842C54.8788 67.0267 56.6015 71.3846 56.6039 75.924Z" fill="#A6A6A6"/>
<path d="M50.4026 93.9532C47.278 96.5846 43.3433 97.9694 39.3143 97.8556C35.2853 97.7418 31.4296 96.1371 28.4487 93.3332L39.7788 80.4834L50.4026 93.9532Z" fill="#263238"/>
<path d="M189.866 58.5332V93.3128C185.403 93.3128 181.124 91.4806 177.968 88.2194C174.813 84.9582 173.04 80.5351 173.04 75.923C173.04 71.3109 174.813 66.8878 177.968 63.6266C181.124 60.3653 185.403 58.5332 189.866 58.5332Z" fill="#5DBD6D"/>
<path d="M194.113 59.0932L189.866 75.923V58.5332C191.299 58.5344 192.726 58.7226 194.113 59.0932Z" fill="#263238"/>
<path d="M209.594 74.9245C209.596 77.1051 209.199 79.2663 208.424 81.2944L192.769 74.9245L197.016 58.0947C200.618 59.0677 203.807 61.2473 206.082 64.2925C208.358 67.3377 209.593 71.0767 209.594 74.9245Z" fill="#455A64"/>
<path d="M205.521 82.2937C204.278 85.5372 202.121 88.3201 199.33 90.2814C196.538 92.2428 193.241 93.2922 189.866 93.2936V75.9238L205.521 82.2937Z" fill="#A6A6A6"/>
<path d="M51.6599 103.533H32.0186V105.483H51.6599V103.533Z" fill="#5DBD6D"/>
<path d="M45.0515 107.604H32.0186V109.553H45.0515V107.604Z" fill="#5DBD6D"/>
<path d="M28.8359 103.514H22.9531V109.594H28.8359V103.514Z" fill="#455A64"/>
<path d="M101.693 103.533H82.0518V105.483H101.693V103.533Z" fill="#5DBD6D"/>
<path d="M95.0847 107.604H82.0518V109.553H95.0847V107.604Z" fill="#5DBD6D"/>
<path d="M78.8681 103.514H72.9854V109.594H78.8681V103.514Z" fill="#A6A6A6"/>
<path d="M151.725 103.533H132.083V105.483H151.725V103.533Z" fill="#5DBD6D"/>
<path d="M145.116 107.604H132.083V109.553H145.116V107.604Z" fill="#5DBD6D"/>
<path d="M128.9 103.514H123.018V109.594H128.9V103.514Z" fill="#263238"/>
<path d="M201.757 103.533H182.116V105.483H201.757V103.533Z" fill="#5DBD6D"/>
<path d="M195.149 107.604H182.116V109.553H195.149V107.604Z" fill="#5DBD6D"/>
<path d="M178.933 103.514H173.05V109.594H178.933V103.514Z" fill="#5DBD6D"/>
<path d="M21.6562 127.964L67.1314 127.844C82.2833 127.844 97.4449 127.844 112.607 127.964C97.4546 128.074 82.293 128.044 67.1314 128.094L21.6562 127.964Z" fill="#5DBD6D"/>
<path d="M21.6562 131.793L67.1314 131.673C82.2833 131.673 97.4449 131.673 112.607 131.793C97.4546 131.903 82.293 131.883 67.1314 131.923L21.6562 131.793Z" fill="#5DBD6D"/>
<path d="M21.6562 135.633L67.1314 135.503C82.2833 135.553 97.4449 135.503 112.607 135.633C97.4546 135.733 82.293 135.713 67.1314 135.753L21.6562 135.633Z" fill="#5DBD6D"/>
<path d="M21.6562 139.463L67.1314 139.333C82.2833 139.383 97.4449 139.333 112.607 139.463C97.4546 139.573 82.293 139.543 67.1314 139.583L21.6562 139.463Z" fill="#5DBD6D"/>
<path d="M21.6562 143.293L67.1314 143.173C82.2833 143.173 97.4449 143.173 112.607 143.293C97.4546 143.403 82.293 143.373 67.1314 143.423L21.6562 143.293Z" fill="#5DBD6D"/>
<path d="M21.6562 147.123L67.1314 147.003C82.2833 147.003 97.4449 147.003 112.607 147.123C97.4546 147.233 82.293 147.213 67.1314 147.253L21.6562 147.123Z" fill="#5DBD6D"/>
<path d="M21.6562 150.962L67.1314 150.832C82.2833 150.882 97.4449 150.832 112.607 150.962C97.4546 151.062 82.293 151.042 67.1314 151.082L21.6562 150.962Z" fill="#5DBD6D"/>
<path d="M21.6562 154.793L67.1314 154.663C82.2833 154.713 97.4449 154.663 112.607 154.793C97.4546 154.903 82.293 154.873 67.1314 154.913L21.6562 154.793Z" fill="#5DBD6D"/>
<path d="M21.6562 158.624L67.1314 158.504C82.2833 158.504 97.4449 158.504 112.607 158.624C97.4546 158.734 82.293 158.704 67.1314 158.754L21.6562 158.624Z" fill="#5DBD6D"/>
<path d="M21.6562 162.453L67.1314 162.333C82.2833 162.333 97.4449 162.333 112.607 162.453C97.4546 162.563 82.293 162.543 67.1314 162.583L21.6562 162.453Z" fill="#5DBD6D"/>
<path d="M21.6562 166.293L67.1314 166.163C82.2833 166.213 97.4449 166.163 112.607 166.293C97.4546 166.393 82.293 166.373 67.1314 166.413L21.6562 166.293Z" fill="#5DBD6D"/>
<path d="M21.6562 170.123L67.1314 169.993C82.2833 169.993 97.4449 169.993 112.607 170.123C97.4546 170.233 82.293 170.203 67.1314 170.243L21.6562 170.123Z" fill="#5DBD6D"/>
<path d="M21.6562 173.953L67.1314 173.833C82.2833 173.833 97.4449 173.833 112.607 173.953C97.4546 174.063 82.293 174.033 67.1314 174.083L21.6562 173.953Z" fill="#5DBD6D"/>
<path d="M21.6562 177.783L67.1314 177.663C82.2833 177.663 97.4449 177.663 112.607 177.783C97.4546 177.893 82.293 177.873 67.1314 177.913L21.6562 177.783Z" fill="#5DBD6D"/>
<path d="M21.6562 181.623L67.1314 181.493C82.2833 181.493 97.4449 181.493 112.607 181.623C97.4546 181.723 82.293 181.703 67.1314 181.743L21.6562 181.623Z" fill="#5DBD6D"/>
<path d="M38.1726 154.793H31.2739V186.093H38.1726V154.793Z" fill="#5DBD6D"/>
<path d="M50.9641 141.553H44.0654V186.082H50.9641V141.553Z" fill="#455A64"/>
<path d="M63.7551 151.093H56.8564V186.092H63.7551V151.093Z" fill="#A6A6A6"/>
<path d="M76.5457 139.463H69.647V186.092H76.5457V139.463Z" fill="#5DBD6D"/>
<path d="M89.3367 145.713H82.438V186.082H89.3367V145.713Z" fill="#455A64"/>
<path d="M102.128 168.593H95.2295V186.093H102.128V168.593Z" fill="#A6A6A6"/>
<path d="M24.1237 125.273L24.3075 140.483L24.443 155.683C24.5301 165.813 24.5494 175.953 24.5688 186.083L24.1237 185.623H46.242L68.3604 185.683L90.469 185.833L112.587 186.113L90.469 186.383L68.3604 186.533L46.242 186.593H24.1237H23.6689V186.123C23.6689 175.996 23.7109 165.863 23.7947 155.723L23.9205 140.523L24.1237 125.273Z" fill="#5DBD6D"/>
<path d="M38.1726 189.303H31.2739V189.943H38.1726V189.303Z" fill="#5DBD6D"/>
<path d="M50.9641 189.303H44.0654V189.943H50.9641V189.303Z" fill="#5DBD6D"/>
<path d="M63.7551 189.303H56.8564V189.943H63.7551V189.303Z" fill="#5DBD6D"/>
<path d="M76.5457 189.303H69.647V189.943H76.5457V189.303Z" fill="#5DBD6D"/>
<path d="M89.3367 189.303H82.438V189.943H89.3367V189.303Z" fill="#5DBD6D"/>
<path d="M102.128 189.303H95.2295V189.943H102.128V189.303Z" fill="#5DBD6D"/>
<path d="M209.042 142.103H133.138V150.622H209.042V142.103Z" fill="#F0F0F0"/>
<path d="M169.257 144.523H135.886V148.213H169.257V144.523Z" fill="#455A64"/>
<path d="M122.505 146.634C122.519 146.899 122.431 147.159 122.259 147.357C122.088 147.555 121.847 147.674 121.591 147.689C121.334 147.703 121.082 147.612 120.891 147.435C120.7 147.257 120.584 147.009 120.57 146.744C120.565 146.664 120.565 146.584 120.57 146.504C120.568 146.218 120.614 145.933 120.705 145.664C120.802 145.381 120.981 145.137 121.218 144.964C121.395 144.847 121.599 144.782 121.808 144.774C121.838 144.772 121.867 144.777 121.894 144.787C121.922 144.798 121.947 144.813 121.969 144.834C121.99 144.854 122.008 144.879 122.02 144.906C122.032 144.934 122.039 144.963 122.041 144.994C122.041 145.054 122.019 145.112 121.98 145.157C121.94 145.201 121.886 145.229 121.828 145.234C121.697 145.231 121.569 145.269 121.46 145.344C121.353 145.415 121.266 145.516 121.209 145.634L121.151 145.734C121.273 145.681 121.405 145.654 121.538 145.654C121.791 145.654 122.034 145.756 122.215 145.939C122.396 146.123 122.5 146.372 122.505 146.634ZM122.07 146.634C122.07 146.49 122.015 146.353 121.917 146.252C121.819 146.151 121.686 146.094 121.547 146.094C121.409 146.094 121.276 146.151 121.178 146.252C121.08 146.353 121.025 146.49 121.025 146.634C121.025 146.777 121.08 146.914 121.178 147.015C121.276 147.117 121.409 147.174 121.547 147.174C121.686 147.174 121.819 147.117 121.917 147.015C122.015 146.914 122.07 146.777 122.07 146.634Z" fill="#263238"/>
<path d="M123.124 146.193C123.117 145.839 123.211 145.491 123.395 145.193C123.468 145.057 123.574 144.945 123.704 144.866C123.833 144.787 123.98 144.746 124.13 144.746C124.28 144.746 124.427 144.787 124.557 144.866C124.686 144.945 124.793 145.057 124.865 145.193C125.051 145.49 125.142 145.839 125.127 146.193C125.14 146.546 125.049 146.895 124.865 147.193C124.793 147.328 124.686 147.441 124.557 147.519C124.427 147.598 124.28 147.639 124.13 147.639C123.98 147.639 123.833 147.598 123.704 147.519C123.574 147.441 123.468 147.328 123.395 147.193C123.212 146.894 123.118 146.546 123.124 146.193ZM124.691 146.193C124.698 145.935 124.63 145.681 124.498 145.463C124.461 145.393 124.408 145.334 124.344 145.291C124.28 145.247 124.206 145.221 124.13 145.213C124.053 145.221 123.979 145.248 123.913 145.292C123.848 145.335 123.793 145.394 123.753 145.463C123.628 145.684 123.564 145.937 123.569 146.193C123.566 146.449 123.629 146.701 123.753 146.923C123.793 146.992 123.848 147.05 123.913 147.093C123.979 147.137 124.053 147.164 124.13 147.173C124.206 147.165 124.28 147.138 124.344 147.094C124.408 147.051 124.461 146.992 124.498 146.923C124.629 146.704 124.696 146.45 124.691 146.193Z" fill="#263238"/>
<path d="M125.949 145.462C125.938 145.367 125.946 145.27 125.974 145.178C126.002 145.086 126.048 145.001 126.11 144.929C126.171 144.857 126.247 144.8 126.332 144.76C126.417 144.721 126.509 144.7 126.602 144.7C126.695 144.7 126.787 144.721 126.872 144.76C126.957 144.8 127.033 144.857 127.095 144.929C127.157 145.001 127.203 145.086 127.23 145.178C127.258 145.27 127.267 145.367 127.255 145.462C127.261 145.556 127.248 145.649 127.217 145.737C127.186 145.824 127.139 145.905 127.077 145.973C127.016 146.041 126.942 146.096 126.859 146.133C126.777 146.171 126.688 146.191 126.597 146.192C126.508 146.191 126.419 146.171 126.337 146.133C126.255 146.096 126.181 146.041 126.121 145.972C126.06 145.904 126.013 145.823 125.984 145.736C125.954 145.648 125.943 145.555 125.949 145.462ZM126.917 145.462C126.928 145.365 126.902 145.266 126.844 145.188C126.786 145.109 126.701 145.057 126.607 145.043C126.423 145.043 126.307 145.232 126.307 145.452C126.307 145.682 126.433 145.862 126.617 145.862C126.801 145.862 126.859 145.692 126.859 145.462H126.917ZM126.414 147.382L128.233 144.812C128.247 144.789 128.267 144.77 128.291 144.758C128.315 144.745 128.341 144.74 128.368 144.743C128.409 144.743 128.448 144.759 128.478 144.789C128.507 144.819 128.523 144.86 128.523 144.903C128.533 144.935 128.533 144.97 128.523 145.002L126.704 147.572C126.687 147.595 126.665 147.614 126.64 147.626C126.614 147.638 126.587 147.644 126.559 147.642C126.518 147.642 126.478 147.626 126.449 147.596C126.42 147.566 126.404 147.525 126.404 147.482C126.378 147.455 126.361 147.42 126.356 147.382H126.414ZM127.633 146.932C127.627 146.839 127.641 146.746 127.671 146.658C127.702 146.571 127.749 146.49 127.811 146.422C127.872 146.354 127.946 146.299 128.029 146.262C128.111 146.224 128.2 146.204 128.291 146.202C128.38 146.204 128.469 146.224 128.551 146.262C128.633 146.299 128.707 146.354 128.767 146.423C128.828 146.491 128.875 146.572 128.904 146.659C128.934 146.747 128.946 146.84 128.939 146.932C128.95 147.028 128.942 147.125 128.914 147.217C128.886 147.309 128.84 147.394 128.778 147.466C128.717 147.538 128.641 147.595 128.556 147.635C128.471 147.674 128.379 147.695 128.286 147.695C128.193 147.695 128.101 147.674 128.016 147.635C127.931 147.595 127.855 147.538 127.793 147.466C127.731 147.394 127.685 147.309 127.658 147.217C127.63 147.125 127.621 147.028 127.633 146.932ZM128.6 146.932C128.6 146.702 128.475 146.522 128.291 146.522C128.107 146.522 128 146.702 128 146.932C128 147.172 128.126 147.352 128.3 147.352C128.474 147.352 128.533 147.192 128.533 146.932H128.6Z" fill="#263238"/>
<path d="M209.042 129.593H133.138V138.113H209.042V129.593Z" fill="#F0F0F0"/>
<path d="M152.344 132.014H135.886V135.704H152.344V132.014Z" fill="#5DBD6D"/>
<path d="M122.079 133.373C122.172 133.466 122.247 133.578 122.298 133.702C122.348 133.826 122.375 133.959 122.375 134.093C122.375 134.228 122.348 134.361 122.298 134.484C122.247 134.608 122.172 134.72 122.079 134.813C121.988 134.909 121.879 134.985 121.76 135.036C121.64 135.088 121.512 135.114 121.382 135.113C121.254 135.113 121.127 135.086 121.009 135.034C120.891 134.983 120.785 134.908 120.695 134.813C120.654 134.769 120.631 134.71 120.631 134.648C120.631 134.587 120.654 134.528 120.695 134.483C120.715 134.461 120.739 134.444 120.765 134.432C120.792 134.42 120.821 134.414 120.85 134.414C120.879 134.414 120.907 134.42 120.934 134.432C120.961 134.444 120.985 134.461 121.005 134.483C121.054 134.535 121.113 134.575 121.177 134.603C121.242 134.63 121.312 134.644 121.382 134.643C121.454 134.645 121.525 134.631 121.591 134.604C121.658 134.576 121.718 134.535 121.769 134.483C121.819 134.432 121.858 134.371 121.885 134.304C121.911 134.237 121.925 134.166 121.924 134.093C121.926 134.02 121.914 133.948 121.887 133.881C121.86 133.814 121.82 133.753 121.769 133.703C121.72 133.652 121.661 133.611 121.596 133.584C121.531 133.556 121.462 133.542 121.392 133.543C121.36 133.544 121.329 133.537 121.3 133.523C121.272 133.509 121.247 133.489 121.227 133.463C121.206 133.442 121.189 133.416 121.177 133.388C121.166 133.359 121.16 133.329 121.16 133.298C121.16 133.267 121.166 133.237 121.177 133.209C121.189 133.18 121.206 133.155 121.227 133.133L121.633 132.703H120.985C120.926 132.703 120.87 132.679 120.828 132.636C120.786 132.593 120.763 132.534 120.763 132.473C120.763 132.412 120.786 132.354 120.828 132.311C120.87 132.267 120.926 132.243 120.985 132.243H122.156C122.215 132.243 122.272 132.267 122.313 132.311C122.355 132.354 122.378 132.412 122.378 132.473C122.388 132.509 122.388 132.547 122.378 132.583C122.381 132.603 122.381 132.623 122.378 132.643L121.885 133.173C121.959 133.229 122.025 133.296 122.079 133.373Z" fill="#263238"/>
<path d="M123.046 133.684C123.035 133.33 123.129 132.981 123.317 132.684C123.388 132.546 123.494 132.43 123.623 132.35C123.753 132.269 123.901 132.227 124.053 132.227C124.204 132.227 124.352 132.269 124.482 132.35C124.611 132.43 124.717 132.546 124.788 132.684C124.968 132.984 125.059 133.331 125.049 133.684C125.057 134.036 124.966 134.383 124.788 134.684C124.715 134.819 124.608 134.932 124.479 135.011C124.35 135.089 124.203 135.131 124.053 135.131C123.903 135.131 123.755 135.089 123.626 135.011C123.497 134.932 123.39 134.819 123.317 134.684C123.132 134.386 123.037 134.038 123.046 133.684ZM124.614 133.684C124.62 133.426 124.553 133.172 124.42 132.954C124.304 132.784 124.178 132.694 124.053 132.704C123.974 132.709 123.899 132.735 123.833 132.779C123.767 132.823 123.713 132.883 123.675 132.954C123.551 133.175 123.487 133.428 123.491 133.684C123.487 133.937 123.55 134.186 123.675 134.404C123.712 134.477 123.766 134.538 123.832 134.584C123.898 134.629 123.974 134.657 124.053 134.664C124.13 134.656 124.204 134.628 124.269 134.583C124.333 134.537 124.385 134.476 124.42 134.404C124.536 134.184 124.586 133.934 124.565 133.684H124.614Z" fill="#263238"/>
<path d="M125.775 132.954C125.764 132.858 125.772 132.761 125.8 132.669C125.827 132.577 125.874 132.493 125.935 132.421C125.997 132.349 126.073 132.291 126.158 132.251C126.243 132.212 126.335 132.191 126.428 132.191C126.521 132.191 126.613 132.212 126.698 132.251C126.783 132.291 126.859 132.349 126.921 132.421C126.982 132.493 127.029 132.577 127.056 132.669C127.084 132.761 127.092 132.858 127.081 132.954C127.086 133.047 127.073 133.14 127.043 133.228C127.012 133.315 126.965 133.396 126.903 133.464C126.842 133.532 126.767 133.587 126.685 133.625C126.602 133.662 126.513 133.683 126.423 133.684C126.333 133.683 126.245 133.662 126.163 133.625C126.081 133.587 126.007 133.532 125.946 133.464C125.886 133.395 125.839 133.315 125.81 133.227C125.78 133.139 125.768 133.046 125.775 132.954ZM126.742 132.954C126.742 132.724 126.617 132.534 126.442 132.534C126.268 132.534 126.143 132.724 126.143 132.944C126.143 133.174 126.268 133.354 126.452 133.354C126.636 133.354 126.723 133.194 126.723 132.954H126.742ZM126.249 134.874L128.068 132.304C128.082 132.279 128.101 132.259 128.125 132.245C128.149 132.231 128.176 132.223 128.203 132.224C128.244 132.224 128.284 132.241 128.313 132.271C128.342 132.301 128.358 132.341 128.358 132.384C128.372 132.419 128.372 132.458 128.358 132.494L126.539 135.064C126.525 135.087 126.505 135.106 126.481 135.118C126.457 135.131 126.43 135.136 126.404 135.134C126.383 135.134 126.363 135.13 126.345 135.122C126.326 135.113 126.309 135.102 126.294 135.087C126.28 135.072 126.269 135.054 126.261 135.035C126.253 135.015 126.249 134.995 126.249 134.974C126.231 134.944 126.225 134.908 126.23 134.874H126.249ZM127.468 134.424C127.457 134.328 127.465 134.231 127.493 134.139C127.521 134.047 127.567 133.963 127.629 133.891C127.69 133.819 127.766 133.761 127.851 133.721C127.936 133.682 128.028 133.661 128.121 133.661C128.214 133.661 128.306 133.682 128.391 133.721C128.476 133.761 128.552 133.819 128.614 133.891C128.675 133.963 128.722 134.047 128.749 134.139C128.777 134.231 128.786 134.328 128.774 134.424C128.786 134.519 128.777 134.616 128.749 134.708C128.722 134.8 128.675 134.885 128.614 134.957C128.552 135.029 128.476 135.087 128.391 135.126C128.306 135.166 128.214 135.186 128.121 135.186C128.028 135.186 127.936 135.166 127.851 135.126C127.766 135.087 127.69 135.029 127.629 134.957C127.567 134.885 127.521 134.8 127.493 134.708C127.465 134.616 127.457 134.519 127.468 134.424ZM128.436 134.424C128.436 134.194 128.31 134.004 128.126 134.004C127.942 134.004 127.826 134.194 127.826 134.414C127.815 134.512 127.841 134.61 127.899 134.688C127.957 134.767 128.041 134.819 128.136 134.834C128.291 134.834 128.407 134.644 128.407 134.424H128.436Z" fill="#263238"/>
<path d="M209.042 179.643H133.138V188.162H209.042V179.643Z" fill="#F0F0F0"/>
<path d="M192.836 182.063H135.886V185.753H192.836V182.063Z" fill="#5DBD6D"/>
<path d="M120.589 183.283C120.582 183.151 120.601 183.02 120.644 182.896C120.686 182.772 120.752 182.658 120.838 182.561C120.923 182.463 121.026 182.384 121.141 182.328C121.256 182.272 121.381 182.239 121.508 182.233C121.764 182.219 122.016 182.312 122.206 182.49C122.3 182.578 122.377 182.685 122.432 182.804C122.486 182.923 122.517 183.051 122.524 183.183C122.528 183.259 122.528 183.336 122.524 183.413C122.527 183.699 122.481 183.983 122.388 184.253C122.294 184.537 122.115 184.782 121.875 184.953C121.701 185.076 121.496 185.146 121.285 185.153C121.226 185.153 121.17 185.128 121.128 185.085C121.086 185.042 121.063 184.984 121.063 184.923C121.063 184.862 121.086 184.803 121.128 184.76C121.17 184.717 121.226 184.693 121.285 184.693C121.415 184.691 121.542 184.653 121.653 184.583C121.758 184.509 121.845 184.409 121.904 184.293C121.926 184.259 121.943 184.222 121.953 184.183C121.836 184.244 121.707 184.275 121.576 184.273C121.448 184.275 121.321 184.252 121.202 184.203C121.083 184.155 120.974 184.083 120.882 183.99C120.79 183.898 120.717 183.788 120.667 183.667C120.616 183.545 120.59 183.415 120.589 183.283ZM121.024 183.283C121.024 183.426 121.079 183.563 121.177 183.665C121.275 183.766 121.408 183.823 121.546 183.823C121.685 183.823 121.818 183.766 121.916 183.665C122.014 183.563 122.069 183.426 122.069 183.283C122.069 183.139 122.014 183.002 121.916 182.901C121.818 182.8 121.685 182.743 121.546 182.743C121.408 182.743 121.275 182.8 121.177 182.901C121.079 183.002 121.024 183.139 121.024 183.283Z" fill="#263238"/>
<path d="M123.124 183.732C123.117 183.378 123.211 183.03 123.395 182.732C123.466 182.594 123.571 182.478 123.701 182.398C123.831 182.317 123.979 182.274 124.13 182.274C124.281 182.274 124.43 182.317 124.559 182.398C124.689 182.478 124.795 182.594 124.865 182.732C125.051 183.029 125.142 183.379 125.127 183.732C125.139 184.085 125.048 184.433 124.865 184.732C124.793 184.867 124.686 184.98 124.557 185.059C124.427 185.137 124.28 185.178 124.13 185.178C123.98 185.178 123.833 185.137 123.704 185.059C123.574 184.98 123.468 184.867 123.395 184.732C123.214 184.432 123.12 184.085 123.124 183.732ZM124.691 183.732C124.699 183.474 124.631 183.22 124.498 183.002C124.382 182.832 124.256 182.742 124.13 182.752C124.004 182.762 123.879 182.832 123.753 183.002C123.632 183.223 123.569 183.473 123.569 183.727C123.569 183.981 123.632 184.231 123.753 184.452C123.791 184.523 123.845 184.584 123.911 184.629C123.977 184.675 124.052 184.703 124.13 184.712C124.208 184.704 124.282 184.676 124.346 184.63C124.41 184.585 124.463 184.524 124.498 184.452C124.63 184.237 124.698 183.986 124.691 183.732Z" fill="#263238"/>
<path d="M125.949 183.003C125.938 182.907 125.946 182.81 125.974 182.718C126.002 182.626 126.048 182.542 126.11 182.469C126.171 182.397 126.247 182.34 126.332 182.3C126.417 182.261 126.509 182.24 126.602 182.24C126.695 182.24 126.787 182.261 126.872 182.3C126.957 182.34 127.033 182.397 127.095 182.469C127.157 182.542 127.203 182.626 127.23 182.718C127.258 182.81 127.267 182.907 127.255 183.003C127.267 183.098 127.258 183.195 127.23 183.287C127.203 183.379 127.157 183.464 127.095 183.536C127.033 183.608 126.957 183.665 126.872 183.705C126.787 183.744 126.695 183.765 126.602 183.765C126.509 183.765 126.417 183.744 126.332 183.705C126.247 183.665 126.171 183.608 126.11 183.536C126.048 183.464 126.002 183.379 125.974 183.287C125.946 183.195 125.938 183.098 125.949 183.003ZM126.917 183.003C126.928 182.906 126.901 182.809 126.843 182.732C126.785 182.655 126.701 182.605 126.607 182.593C126.423 182.593 126.307 182.773 126.307 183.003C126.307 183.243 126.433 183.423 126.617 183.423C126.801 183.423 126.859 183.193 126.859 183.003H126.917ZM126.414 184.913L128.233 182.353C128.246 182.328 128.266 182.308 128.29 182.294C128.314 182.28 128.341 182.272 128.368 182.273C128.409 182.273 128.448 182.289 128.478 182.319C128.507 182.349 128.523 182.39 128.523 182.433C128.533 182.468 128.533 182.507 128.523 182.543L126.704 185.113C126.687 185.135 126.665 185.154 126.64 185.166C126.614 185.178 126.587 185.184 126.559 185.183C126.518 185.183 126.478 185.166 126.449 185.136C126.42 185.106 126.404 185.065 126.404 185.023C126.378 184.992 126.361 184.953 126.356 184.913H126.414ZM127.633 184.473C127.627 184.379 127.641 184.286 127.671 184.199C127.702 184.111 127.749 184.03 127.811 183.962C127.872 183.894 127.946 183.839 128.029 183.802C128.111 183.764 128.2 183.744 128.291 183.743C128.38 183.744 128.467 183.764 128.549 183.801C128.63 183.838 128.703 183.892 128.764 183.959C128.824 184.027 128.871 184.106 128.901 184.192C128.931 184.279 128.944 184.371 128.939 184.463C128.95 184.558 128.942 184.655 128.914 184.747C128.886 184.839 128.84 184.924 128.778 184.996C128.717 185.068 128.641 185.125 128.556 185.165C128.471 185.204 128.379 185.225 128.286 185.225C128.193 185.225 128.101 185.204 128.016 185.165C127.931 185.125 127.855 185.068 127.793 184.996C127.731 184.924 127.685 184.839 127.658 184.747C127.63 184.655 127.621 184.558 127.633 184.463V184.473ZM128.6 184.473C128.6 184.243 128.475 184.053 128.291 184.053C128.107 184.053 128 184.243 128 184.463C128 184.693 128.126 184.883 128.3 184.883C128.474 184.883 128.533 184.693 128.533 184.473H128.6Z" fill="#263238"/>
<path d="M209.042 167.134H133.138V175.654H209.042V167.134Z" fill="#F0F0F0"/>
<path d="M187.069 169.543H135.886V173.233H187.069V169.543Z" fill="#455A64"/>
<path d="M122.437 171.672C122.437 171.938 122.335 172.192 122.153 172.38C121.972 172.567 121.726 172.672 121.469 172.672C121.212 172.672 120.966 172.567 120.785 172.38C120.603 172.192 120.501 171.938 120.501 171.672C120.504 171.512 120.545 171.355 120.619 171.214C120.693 171.073 120.799 170.952 120.927 170.862C120.839 170.745 120.791 170.601 120.792 170.452C120.792 170.272 120.861 170.099 120.984 169.972C121.108 169.844 121.275 169.772 121.45 169.772C121.624 169.772 121.792 169.844 121.915 169.972C122.038 170.099 122.108 170.272 122.108 170.452C122.108 170.601 122.061 170.745 121.972 170.862C122.108 170.948 122.221 171.066 122.302 171.207C122.383 171.349 122.429 171.508 122.437 171.672ZM122.001 171.672C122.001 171.568 121.971 171.465 121.915 171.378C121.858 171.291 121.778 171.223 121.685 171.183C121.591 171.143 121.488 171.132 121.388 171.153C121.289 171.173 121.197 171.224 121.126 171.298C121.054 171.372 121.005 171.466 120.985 171.569C120.966 171.672 120.976 171.778 121.015 171.875C121.053 171.972 121.119 172.055 121.203 172.113C121.288 172.171 121.387 172.202 121.488 172.202C121.624 172.202 121.755 172.147 121.851 172.047C121.947 171.948 122.001 171.813 122.001 171.672ZM121.266 170.452C121.264 170.498 121.275 170.544 121.299 170.583C121.322 170.622 121.356 170.653 121.396 170.672C121.437 170.691 121.482 170.697 121.526 170.689C121.569 170.681 121.61 170.66 121.642 170.629C121.674 170.597 121.696 170.556 121.706 170.511C121.715 170.466 121.711 170.42 121.695 170.377C121.678 170.334 121.65 170.298 121.613 170.272C121.576 170.246 121.533 170.232 121.488 170.232C121.431 170.232 121.376 170.255 121.334 170.296C121.293 170.337 121.268 170.393 121.266 170.452Z" fill="#263238"/>
<path d="M123.046 171.193C123.042 170.839 123.136 170.492 123.317 170.193C123.39 170.057 123.497 169.945 123.626 169.866C123.755 169.787 123.903 169.746 124.052 169.746C124.202 169.746 124.35 169.787 124.479 169.866C124.608 169.945 124.715 170.057 124.788 170.193C124.973 170.49 125.068 170.839 125.059 171.193C125.07 171.547 124.976 171.896 124.788 172.193C124.717 172.331 124.611 172.446 124.482 172.527C124.352 172.608 124.204 172.65 124.052 172.65C123.901 172.65 123.753 172.608 123.623 172.527C123.494 172.446 123.388 172.331 123.317 172.193C123.134 171.894 123.04 171.546 123.046 171.193ZM124.614 171.193C124.618 170.935 124.551 170.682 124.42 170.463C124.384 170.392 124.332 170.332 124.268 170.289C124.203 170.245 124.129 170.219 124.052 170.213C123.975 170.222 123.901 170.249 123.836 170.293C123.771 170.336 123.716 170.394 123.675 170.463C123.552 170.685 123.488 170.937 123.491 171.193C123.487 171.449 123.55 171.701 123.675 171.923C123.716 171.991 123.771 172.049 123.836 172.093C123.901 172.136 123.975 172.163 124.052 172.173C124.129 172.167 124.203 172.14 124.268 172.097C124.332 172.053 124.384 171.993 124.42 171.923C124.563 171.708 124.64 171.453 124.643 171.193H124.614Z" fill="#263238"/>
<path d="M125.852 170.492C125.841 170.396 125.85 170.299 125.877 170.207C125.905 170.116 125.951 170.031 126.013 169.959C126.075 169.887 126.151 169.829 126.235 169.789C126.32 169.75 126.412 169.729 126.506 169.729C126.599 169.729 126.691 169.75 126.776 169.789C126.861 169.829 126.936 169.887 126.998 169.959C127.06 170.031 127.106 170.116 127.134 170.207C127.161 170.299 127.17 170.396 127.159 170.492C127.17 170.587 127.161 170.684 127.134 170.776C127.106 170.868 127.06 170.953 126.998 171.025C126.936 171.097 126.861 171.155 126.776 171.194C126.691 171.234 126.599 171.254 126.506 171.254C126.412 171.254 126.32 171.234 126.235 171.194C126.151 171.155 126.075 171.097 126.013 171.025C125.951 170.953 125.905 170.868 125.877 170.776C125.85 170.684 125.841 170.587 125.852 170.492ZM126.82 170.492C126.82 170.262 126.694 170.072 126.51 170.072C126.327 170.072 126.21 170.262 126.21 170.482C126.21 170.712 126.336 170.902 126.52 170.902C126.704 170.902 126.81 170.712 126.81 170.492H126.82ZM126.317 172.402L128.136 169.832C128.15 169.808 128.17 169.789 128.194 169.777C128.218 169.765 128.245 169.759 128.271 169.762C128.292 169.762 128.312 169.766 128.331 169.774C128.349 169.782 128.366 169.794 128.381 169.809C128.395 169.824 128.407 169.841 128.414 169.861C128.422 169.88 128.426 169.901 128.426 169.922C128.436 169.958 128.436 169.996 128.426 170.032L126.607 172.592C126.591 172.616 126.569 172.636 126.544 172.649C126.519 172.663 126.491 172.671 126.462 172.672C126.442 172.672 126.422 172.668 126.403 172.66C126.384 172.652 126.367 172.64 126.353 172.625C126.338 172.61 126.327 172.592 126.319 172.573C126.311 172.554 126.307 172.533 126.307 172.512C126.298 172.476 126.298 172.438 126.307 172.402H126.317ZM127.536 171.952C127.531 171.858 127.544 171.765 127.574 171.676C127.605 171.588 127.652 171.507 127.714 171.438C127.775 171.369 127.849 171.313 127.932 171.274C128.014 171.236 128.103 171.214 128.194 171.212C128.284 171.213 128.372 171.233 128.454 171.271C128.536 171.309 128.61 171.364 128.671 171.432C128.732 171.5 128.778 171.581 128.808 171.669C128.837 171.756 128.849 171.849 128.842 171.942C128.847 172.035 128.834 172.128 128.804 172.216C128.773 172.304 128.726 172.384 128.664 172.452C128.603 172.52 128.529 172.575 128.446 172.613C128.364 172.65 128.275 172.671 128.184 172.672C128.095 172.672 128.006 172.653 127.923 172.616C127.841 172.58 127.766 172.526 127.705 172.459C127.643 172.391 127.596 172.311 127.565 172.224C127.534 172.137 127.521 172.044 127.526 171.952H127.536ZM128.504 171.952C128.504 171.722 128.378 171.532 128.194 171.532C128.01 171.532 127.904 171.722 127.904 171.942C127.904 172.172 128.029 172.352 128.204 172.352C128.378 172.352 128.484 172.192 128.484 171.952H128.504Z" fill="#263238"/>
<path d="M209.042 154.613H133.138V163.133H209.042V154.613Z" fill="#F0F0F0"/>
<path d="M179.329 157.032H135.886V160.722H179.329V157.032Z" fill="#5DBD6D"/>
<path d="M122.36 157.583L121.392 160.003C121.377 160.045 121.349 160.081 121.312 160.104C121.276 160.128 121.232 160.138 121.189 160.133H121.112C121.058 160.109 121.016 160.064 120.994 160.008C120.972 159.952 120.973 159.889 120.996 159.833L121.847 157.733H120.821C120.793 157.733 120.764 157.727 120.738 157.716C120.711 157.704 120.687 157.687 120.667 157.665C120.648 157.644 120.632 157.618 120.622 157.59C120.612 157.563 120.607 157.533 120.609 157.503C120.609 157.445 120.631 157.389 120.671 157.348C120.711 157.306 120.765 157.283 120.821 157.283H122.224H122.312V157.413C122.312 157.413 122.36 157.573 122.36 157.583Z" fill="#263238"/>
<path d="M122.824 158.703C122.817 158.349 122.912 158.002 123.095 157.703C123.173 157.57 123.283 157.459 123.413 157.381C123.543 157.302 123.689 157.258 123.84 157.253C123.988 157.26 124.131 157.305 124.258 157.383C124.385 157.462 124.49 157.572 124.566 157.703C124.754 157.999 124.848 158.349 124.837 158.703C124.847 159.057 124.752 159.406 124.566 159.703C124.49 159.834 124.385 159.944 124.258 160.023C124.131 160.101 123.988 160.146 123.84 160.153C123.689 160.148 123.543 160.104 123.413 160.025C123.283 159.946 123.173 159.836 123.095 159.703C122.913 159.404 122.818 159.056 122.824 158.703ZM124.392 158.703C124.395 158.447 124.331 158.195 124.208 157.973C124.176 157.898 124.124 157.834 124.058 157.789C123.992 157.745 123.914 157.721 123.835 157.721C123.756 157.721 123.679 157.745 123.613 157.789C123.546 157.834 123.494 157.898 123.463 157.973C123.336 158.194 123.269 158.446 123.269 158.703C123.269 158.96 123.336 159.212 123.463 159.433C123.494 159.508 123.546 159.572 123.613 159.616C123.679 159.661 123.756 159.685 123.835 159.685C123.914 159.685 123.992 159.661 124.058 159.616C124.124 159.572 124.176 159.508 124.208 159.433C124.331 159.211 124.395 158.959 124.392 158.703Z" fill="#263238"/>
<path d="M125.601 157.983C125.596 157.89 125.609 157.796 125.639 157.708C125.67 157.619 125.717 157.538 125.778 157.469C125.84 157.4 125.914 157.345 125.997 157.306C126.079 157.267 126.168 157.246 126.259 157.243C126.349 157.244 126.437 157.264 126.519 157.302C126.601 157.34 126.675 157.395 126.736 157.463C126.797 157.532 126.843 157.612 126.873 157.7C126.902 157.788 126.914 157.881 126.907 157.973C126.918 158.069 126.91 158.166 126.882 158.258C126.855 158.349 126.808 158.434 126.747 158.506C126.685 158.578 126.609 158.636 126.524 158.676C126.439 158.715 126.347 158.735 126.254 158.735C126.161 158.735 126.069 158.715 125.984 158.676C125.899 158.636 125.823 158.578 125.762 158.506C125.7 158.434 125.654 158.349 125.626 158.258C125.598 158.166 125.59 158.069 125.601 157.973V157.983ZM126.569 157.983C126.569 157.753 126.443 157.563 126.259 157.563C126.075 157.563 125.969 157.753 125.969 157.973C125.969 158.203 126.094 158.393 126.269 158.393C126.443 158.393 126.559 158.193 126.559 157.983H126.569ZM126.065 159.893L127.884 157.323C127.899 157.3 127.919 157.281 127.943 157.268C127.967 157.256 127.993 157.251 128.02 157.253C128.062 157.253 128.102 157.27 128.133 157.299C128.164 157.329 128.182 157.37 128.184 157.413C128.194 157.446 128.194 157.481 128.184 157.513L126.365 160.083C126.349 160.107 126.327 160.125 126.302 160.138C126.276 160.15 126.248 160.155 126.22 160.153C126.201 160.155 126.181 160.152 126.163 160.145C126.145 160.138 126.128 160.127 126.114 160.113C126.101 160.098 126.09 160.081 126.083 160.062C126.076 160.043 126.074 160.023 126.075 160.003C126.058 159.97 126.051 159.931 126.056 159.893H126.065ZM127.285 159.443C127.279 159.35 127.292 159.257 127.323 159.169C127.354 159.081 127.401 159.001 127.463 158.933C127.524 158.865 127.598 158.81 127.681 158.772C127.763 158.734 127.852 158.714 127.943 158.713C128.032 158.714 128.121 158.734 128.203 158.772C128.285 158.81 128.359 158.865 128.419 158.933C128.48 159.002 128.527 159.082 128.556 159.17C128.586 159.258 128.597 159.351 128.591 159.443C128.597 159.536 128.586 159.63 128.556 159.718C128.527 159.806 128.48 159.887 128.42 159.956C128.359 160.026 128.286 160.081 128.204 160.12C128.122 160.159 128.033 160.181 127.943 160.183C127.851 160.183 127.76 160.164 127.675 160.126C127.591 160.089 127.515 160.033 127.452 159.964C127.39 159.894 127.342 159.812 127.311 159.723C127.281 159.633 127.268 159.538 127.275 159.443H127.285ZM128.252 159.443C128.252 159.213 128.126 159.033 127.952 159.033C127.778 159.033 127.652 159.213 127.652 159.443C127.652 159.683 127.778 159.863 127.952 159.863C128.126 159.863 128.233 159.663 128.233 159.443H128.252Z" fill="#263238"/>
</svg>
