<svg width="17" height="19" viewBox="0 0 17 19" fill="none" xmlns="http://www.w3.org/2000/svg">
<path d="M16.1667 1.87012H0V3.74081H16.1667V1.87012Z" fill="white"/>
<path d="M16.1667 8.07324H0V9.94393H16.1667V8.07324Z" fill="white"/>
<path d="M16.1667 14.2764H0V16.1471H16.1667V14.2764Z" fill="white"/>
<path d="M3.70193 5.59241C5.24623 5.59241 6.49816 4.34051 6.49816 2.79621C6.49816 1.25191 5.24623 0 3.70193 0C2.15763 0 0.905762 1.25191 0.905762 2.79621C0.905762 4.34051 2.15763 5.59241 3.70193 5.59241Z" fill="white"/>
<path d="M14.6895 9.09714C14.6856 9.64932 14.5183 10.188 14.2087 10.6452C13.8991 11.1025 13.4611 11.4578 12.9498 11.6664C12.4385 11.875 11.8769 11.9276 11.3358 11.8175C10.7947 11.7074 10.2983 11.4395 9.90924 11.0477C9.52015 10.6559 9.25577 10.1576 9.14947 9.61577C9.04316 9.0739 9.0997 8.51269 9.3119 8.00289C9.52411 7.4931 9.88251 7.05756 10.3419 6.75117C10.8013 6.44478 11.3411 6.28126 11.8933 6.28125C12.2622 6.28124 12.6274 6.35421 12.968 6.49597C13.3085 6.63772 13.6176 6.84545 13.8775 7.10719C14.1374 7.36894 14.343 7.67952 14.4823 8.02104C14.6217 8.36257 14.6921 8.72829 14.6895 9.09714Z" fill="white"/>
<path d="M6.28152 18.0182C7.82582 18.0182 9.07775 16.7663 9.07775 15.222C9.07775 13.6777 7.82582 12.4258 6.28152 12.4258C4.73722 12.4258 3.48535 13.6777 3.48535 15.222C3.48535 16.7663 4.73722 18.0182 6.28152 18.0182Z" fill="white"/>
</svg>
